<?xml version="1.0" encoding="utf-8"?>
<!-- Generator: Adobe Illustrator 27.0.1, SVG Export Plug-In . SVG Version: 6.00 Build 0)  -->
<svg version="1.1" id="Calque_1" xmlns="http://www.w3.org/2000/svg" xmlns:xlink="http://www.w3.org/1999/xlink" x="0px" y="0px"
	 viewBox="0 0 162.8 178.7" style="enable-background:new 0 0 162.8 178.7;" xml:space="preserve">
<style type="text/css">
	.st0{clip-path:url(#SVGID_00000108307265048151790940000007672678586890789813_);}
	.st1{fill:#FFFFFF;}
	.st2{fill:#4F4294;}
	.st3{fill:#A3BB43;}
</style>
<g>
	<defs>
		<rect id="SVGID_1_" x="27.8" width="107" height="119.7"/>
	</defs>
	<clipPath id="SVGID_00000098186423893689010430000006321645158506150046_">
		<use xlink:href="#SVGID_1_"  style="overflow:visible;"/>
	</clipPath>
	<g style="clip-path:url(#SVGID_00000098186423893689010430000006321645158506150046_);">
		<path class="st1" d="M103.9,47.1c-0.1-0.3-0.1-0.6-0.2-0.7l-7.8-17.6c0-0.1-0.1-0.2,0-0.2c0.1-6.5,1.2-12.2-1.2-17.2
			c-6.6-15-31-10.9-32.2-10.7c0,0-0.1,0-0.1,0c-17.5,0-32.8,14.9-34.3,35.6c0,0,0,0.1,0,0.1l0.1,0.7l-0.1-0.5c0,0-1.7,18,2.5,23.9
			C37,74.6,53.6,80,71.2,82.1v19.3l31.8,18.3l31.8-18.3V64.9L103.9,47.1z M44,45.3c-4.4-13.8,4.9-28.5,18.5-28.5
			c4.7,0,9.5,1.3,11.9,5.9c2.8,5.5,7.1,9.6,13.6,10.5c0.1,0,0.2,0.1,0.3,0.1l14.2,13.4l0.1,0.1L80.9,59.3l-18.5,0.4
			C53.9,59.5,46.7,53.8,44,45.3z M128.2,97.6L103,112.1L77.8,97.6v-29L103,47.2l0.9,0.7c0,0,0-0.1,0-0.1l24.2,20.9V97.6z"/>
		<path class="st2" d="M82.3,17.8c1.6,0,2.9-1.3,2.9-2.8c0-1.6-1.3-2.8-2.9-2.8c-1.6,0-2.9,1.3-2.9,2.8
			C79.5,16.5,80.7,17.8,82.3,17.8z"/>
		<path class="st3" d="M103,83.1L82.3,71.3V95l20.7,11.9L123.7,95V71.3L103,83.1z"/>
	</g>
</g>
<g>
	<path class="st1" d="M21.9,158.1c1.8,0,3.5-0.3,5-0.8c1.5-0.5,2.6-1.1,3.4-1.6l3.8,7.6c-0.9,0.8-2.5,1.6-4.8,2.4
		c-2.3,0.8-5,1.2-8.1,1.2c-2.9,0-5.7-0.5-8.2-1.5c-2.6-1-4.8-2.5-6.8-4.3c-1.9-1.8-3.5-4-4.6-6.5S0,149.4,0,146.5
		c0-2.9,0.5-5.6,1.6-8.1c1.1-2.5,2.6-4.7,4.6-6.6c1.9-1.9,4.2-3.3,6.8-4.3c2.6-1,5.3-1.5,8.2-1.5c3.1,0,5.8,0.4,8.1,1.2
		s3.9,1.6,4.8,2.4l-3.8,7.6c-0.7-0.5-1.9-1.1-3.4-1.6c-1.5-0.5-3.2-0.8-5-0.8c-2,0-3.8,0.3-5.3,0.9c-1.5,0.6-2.8,1.5-3.8,2.6
		c-1,1.1-1.8,2.3-2.3,3.7s-0.8,2.8-0.8,4.3c0,1.5,0.2,3,0.8,4.4c0.5,1.4,1.3,2.6,2.3,3.7c1,1.1,2.3,2,3.8,2.6
		C18.1,157.8,19.9,158.1,21.9,158.1z"/>
	<path class="st1" d="M56.8,140.9c1.7,0,3.4,0.3,5,1c1.6,0.7,3,1.8,4,3.3c1.1,1.5,1.6,3.5,1.6,6v15h-9.1v-13.5c0-1.8-0.4-3.1-1.2-4
		c-0.8-0.9-1.9-1.3-3.2-1.3c-0.9,0-1.8,0.2-2.6,0.7c-0.8,0.5-1.5,1.1-2,2c-0.5,0.9-0.8,1.8-0.8,2.9v13.2h-9.2V125h9.2v20.3
		c0.2-0.7,0.7-1.3,1.5-2c0.8-0.7,1.7-1.2,2.9-1.7C54.2,141.1,55.4,140.9,56.8,140.9z"/>
	<path class="st1" d="M92,166.3v-4c-0.2,0.4-0.6,1-1.4,1.7c-0.7,0.8-1.7,1.4-2.9,2.1c-1.2,0.6-2.6,0.9-4.2,0.9
		c-2.4,0-4.5-0.6-6.3-1.8s-3.2-2.7-4.2-4.7c-1-2-1.5-4.2-1.5-6.6c0-2.4,0.5-4.6,1.5-6.6c1-2,2.4-3.5,4.2-4.7
		c1.8-1.2,3.9-1.8,6.3-1.8c1.5,0,2.9,0.2,4,0.7c1.2,0.5,2.1,1.1,2.8,1.7s1.2,1.3,1.5,1.8v-3.6h9.1v24.6H92z M80.5,154
		c0,1.1,0.3,2.1,0.8,3c0.5,0.9,1.2,1.6,2.1,2.1c0.9,0.5,1.8,0.8,2.9,0.8c1.1,0,2.1-0.2,2.9-0.8c0.8-0.5,1.5-1.2,2-2.1
		c0.5-0.9,0.7-1.9,0.7-3s-0.2-2.1-0.7-3c-0.5-0.9-1.2-1.6-2-2.1s-1.8-0.8-2.9-0.8c-1.1,0-2,0.3-2.9,0.8c-0.9,0.5-1.6,1.2-2.1,2.1
		C80.7,151.8,80.5,152.8,80.5,154z"/>
	<path class="st1" d="M119.2,158.4l6.7-16.7h8.9l-16.9,37.1h-9.1l5.7-12.5l-10.3-24.6h9.1L119.2,158.4z"/>
	<path class="st1" d="M144.9,155.9c0.1,0.9,0.3,1.7,0.8,2.3c0.5,0.7,1.2,1.2,2.1,1.6c0.9,0.4,1.9,0.6,3.2,0.6c1.2,0,2.2-0.1,3.1-0.4
		s1.7-0.5,2.4-0.9c0.7-0.4,1.2-0.7,1.6-1.1l3.5,5.6c-0.5,0.5-1.2,1.1-2.1,1.6s-2.1,0.9-3.6,1.2c-1.5,0.3-3.3,0.5-5.6,0.5
		c-2.7,0-5.1-0.5-7.3-1.5c-2.1-1-3.8-2.5-5-4.5c-1.2-2-1.8-4.4-1.8-7.3c0-2.4,0.5-4.6,1.6-6.5c1-1.9,2.6-3.5,4.6-4.6
		c2-1.1,4.4-1.7,7.2-1.7c2.7,0,5,0.5,7,1.5c2,1,3.5,2.4,4.6,4.4c1.1,1.9,1.6,4.3,1.6,7.2c0,0.2,0,0.5,0,1c0,0.5,0,0.8-0.1,1H144.9z
		 M154.2,151.1c0-0.6-0.2-1.3-0.5-1.9c-0.3-0.6-0.8-1.2-1.4-1.6c-0.6-0.4-1.5-0.6-2.5-0.6c-1,0-1.8,0.2-2.5,0.6
		c-0.7,0.4-1.2,0.9-1.6,1.5c-0.4,0.6-0.6,1.3-0.6,2H154.2z"/>
</g>
</svg>
