<?xml version="1.0" standalone="no"?>
<!DOCTYPE svg PUBLIC "-//W3C//DTD SVG 20010904//EN"
 "http://www.w3.org/TR/2001/REC-SVG-20010904/DTD/svg10.dtd">
<svg version="1.0" xmlns="http://www.w3.org/2000/svg"
 width="169.000000pt" height="44.000000pt" viewBox="0 0 169.000000 44.000000"
 preserveAspectRatio="xMidYMid meet">

<g transform="translate(0.000000,44.000000) scale(0.100000,-0.100000)"
fill="#000000" stroke="none">
<path d="M0 215 l0 -215 845 0 845 0 0 215 0 215 -845 0 -845 0 0 -215z m552
148 c8 -10 21 -39 28 -65 9 -36 19 -49 40 -58 48 -20 62 -43 58 -95 -3 -46 -5
-49 -50 -73 l-47 -26 -48 27 c-34 18 -49 33 -51 50 -2 18 -11 26 -32 30 -15 4
-40 18 -55 33 -24 24 -27 33 -23 81 4 42 11 60 33 83 25 26 36 30 80 30 37 0
56 -5 67 -17z m352 -69 c3 -9 6 -26 6 -40 0 -17 4 -22 15 -18 8 4 25 -1 38 -9
19 -12 26 -13 41 -2 17 13 139 16 149 5 2 -3 9 -14 14 -24 10 -19 11 -19 17 1
8 25 35 38 49 24 6 -6 18 -6 32 1 13 6 34 8 48 5 26 -7 55 -56 38 -66 -5 -4
-9 -15 -8 -26 2 -17 -5 -20 -45 -23 -38 -3 -49 1 -62 19 -18 26 -17 27 -45
-28 -24 -49 -34 -57 -61 -48 -18 6 -19 7 -1 38 15 27 15 36 4 57 l-13 25 0
-32 0 -33 -58 0 c-32 0 -63 5 -70 12 -9 9 -12 9 -12 0 0 -7 -11 -12 -25 -12
-22 0 -25 4 -25 35 0 23 -5 35 -14 35 -9 0 -13 -11 -12 -32 l1 -33 -75 -3
c-68 -2 -78 0 -98 21 -12 12 -25 37 -28 54 -5 27 -1 37 28 67 29 30 42 36 77
36 26 0 41 -5 41 -12 0 -7 5 -5 11 5 12 21 35 22 43 1z"/>
<path d="M463 312 c-25 -4 -38 -32 -28 -62 5 -16 15 -20 54 -20 63 0 83 20 44
45 -16 10 -32 24 -38 30 -5 6 -20 9 -32 7z"/>
<path d="M553 211 l-23 -19 25 -16 c23 -15 27 -15 51 1 l26 17 -22 18 c-27 22
-29 22 -57 -1z"/>
<path d="M774 236 c-15 -12 -17 -19 -8 -43 8 -25 14 -28 52 -28 l42 0 0 40 c0
38 -2 40 -33 42 -19 2 -42 -4 -53 -11z"/>
<path d="M1032 178 c6 -18 28 -21 28 -4 0 9 -7 16 -16 16 -9 0 -14 -5 -12 -12z"/>
<path d="M1288 163 c7 -3 16 -2 19 1 4 3 -2 6 -13 5 -11 0 -14 -3 -6 -6z"/>
</g>
</svg>
